HIERARCHY
ROOT hip
{
  OFFSET 0.0 0.0 0.0
  CHANNELS 6 Xposition Yposition Zposition Zrotation Yrotation Xrotation
  JOINT torso
  {
    OFFSET 0.0 0.0 0.0
    CHANNELS 3 Zrotation Xrotation Yrotation
    JOINT neck
    {
      OFFSET -8.059630999999968 325.56260699999996 64.6221310000002
      CHANNELS 3 Zrotation Xrotation Yrotation
      JOINT head
      {
        OFFSET 34.685424000000125 375.1179809999999 232.79357900000002
        CHANNELS 3 Zrotation Xrotation Yrotation
        End Site
        {
          OFFSET 0.0 0.0 0.0
        }
      }
    }
    JOINT left_collar
    {
      OFFSET -8.059630999999968 325.56260699999996 64.6221310000002
      CHANNELS 3 Zrotation Xrotation Yrotation
      JOINT left_upper_arm
      {
        OFFSET -124.124665 -15.370300999999927 25.582641999999964
        CHANNELS 3 Zrotation Xrotation Yrotation
        JOINT left_forearm
        {
          OFFSET -268.19913399999996 105.06054699999993 114.74548300000004
          CHANNELS 3 Zrotation Xrotation Yrotation
          JOINT left_hand
          {
            OFFSET -235.82003099999991 -10.198180999999977 -38.67455999999993
            CHANNELS 3 Zrotation Xrotation Yrotation
            End Site
            {
              OFFSET 0.0 0.0 0.0
            }
          }
        }
      }
    }
    JOINT right_collar
    {
      OFFSET -8.059630999999968 325.56260699999996 64.6221310000002
      CHANNELS 3 Zrotation Xrotation Yrotation
      JOINT right_upper_arm
      {
        OFFSET 162.73931899999997 -2.8598030000000563 26.244994999999903
        CHANNELS 3 Zrotation Xrotation Yrotation
        JOINT right_forearm
        {
          OFFSET 284.6506340000001 103.07031299999994 145.84521499999994
          CHANNELS 3 Zrotation Xrotation Yrotation
          JOINT right_hand
          {
            OFFSET 226.332337 -12.198241999999937 -49.27258299999994
            CHANNELS 3 Zrotation Xrotation Yrotation
            End Site
            {
              OFFSET 0.0 0.0 0.0
            }
          }
        }
      }
    }
  }
}
MOTION
Frames: 8
Frame Time: 0.01
304.8510250934634 187.92379708897172 476.1228307983983 -9.877991601940396 -6.964411439598417 55.43312972584878 1.7166170309665783 -3.213158448140801 -0.4660549715223058 3.3652179480236417 -2.102663437355649 -1.9289493747858266 0.0 0.0 0.0 2.686889567836804 -0.47850393121340223 7.032499531537259 48.01240030756057 16.146071595446056 23.66943989924824 26.677370890182807 -1.164347013379326 -11.673159953606383 0.0 0.0 0.0 0.07761558986993278 0.0469372831305833 3.5041651971074805 -3.820747099904907 -3.967743862422492 17.117805947968627 6.820690100522333 1.4688109988310607 1.5330097344293192 0.0 0.0 0.0
304.52835157892247 188.23743685392543 479.5484447731289 -9.907266535390063 -6.933124845842832 56.0905818281024 1.71514645976013 -3.242980536366761 -0.46687878324233495 3.354109947509223 -2.0279009983243785 -1.9273918879586838 0.0 0.0 0.0 2.671985607289877 -0.48739995671012587 7.07904110426209 47.9946504411162 16.16286173670392 23.458705875390695 26.671857939476265 -1.082050756453073 -11.962692581560086 0.0 0.0 0.0 0.06297519618714865 0.05026419605339559 3.5334770163566427 -3.4034046629225996 -4.357136264571573 17.345270396222844 6.946721983776904 1.4949564700243048 1.4754753033898962 0.0 0.0 0.0
304.18481864383057 188.50901203404686 482.9652826671536 -9.93130437257584 -6.89424832027792 56.74869325116202 1.7140363326867532 -3.278459073791299 -0.468002304382814 3.344762073899616 -1.9525196771703242 -1.9269979148810898 0.0 0.0 0.0 2.6565007669136125 -0.49417733513551493 7.110520809059042 47.96955822053214 16.177926883138593 23.25375195993879 26.67568425368661 -0.9960689038091537 -12.267417568756523 0.0 0.0 0.0 0.04900470076442819 0.05322393932993678 3.5486185248977455 -3.011298017561186 -4.723907262958175 17.55278082144655 7.09752243504711 1.5258256791317288 1.4603246918544226 0.0 0.0 0.0
303.81746647596674 188.73955988692475 486.3726773365819 -9.949860394769553 -6.847596938042307 57.40735744109244 1.7133231250249468 -3.319154178949162 -0.46941685463667665 3.3374062938592033 -1.8772166861503174 -1.9278604117582552 0.0 0.0 0.0 2.640420098593492 -0.4987932544883861 7.1265850382825455 47.938940434836056 16.191254292368946 23.057417816585527 26.689626538355775 -0.906870637250895 -12.585550945587983 0.0 0.0 0.0 0.035860065864960634 0.05578321423693557 3.549734737729615 -2.6457436045856904 -5.066730773163963 17.74125574127969 7.273886342765808 1.5614246085181225 1.486923557799091 0.0 0.0 0.0
303.42329993997237 188.9301803181746 489.7703900362561 -9.962649459872887 -6.793091967411957 58.06640684932898 1.713013147054815 -3.3645584721084862 -0.4711044611162569 3.3321646707033445 -1.8026484829038105 -1.9300057078402129 0.0 0.0 0.0 2.623744742734136 -0.5012271815810206 7.127046612431903 47.9046071420015 16.20287273575388 22.872265923512813 26.714297912975976 -0.81493493610156 -12.915183706013066 0.0 0.0 0.0 0.023649695649395615 0.057920484500615176 3.537078372609769 -2.307795886375134 -5.384587072586852 17.91177250020756 7.475895811383819 1.6015670551930203 1.5541786702439817 0.0 0.0 0.0
302.9993164134139 189.08201045439924 493.1586822354137 -9.969354391969272 -6.730764491738289 58.72561378709079 1.7130831807658546 -3.4141034823666065 -0.4730381927966043 3.3290397735317616 -1.7294252913522414 -1.9333882007097036 0.0 0.0 0.0 2.606493580429671 -0.5014813851870521 7.111890801617015 47.8683387903807 16.212851955183964 22.700538754205212 26.750146355298085 -0.7207543681895188 -13.25428091876565 0.0 0.0 0.0 0.012431398220067155 0.05962644415439124 3.510992836822481 -1.998242326571591 -5.676767684010871 18.065542610249267 7.702950022208045 1.6458865498004316 1.6606002878498711 0.0 0.0 0.0
302.5425246100469 189.1962090497035 496.53837783402327 -9.969635574983947 -6.660754872871297 59.38469412494776 1.7134825971185654 -3.467167420185605 -0.4751828665103782 3.327908581609705 -1.6581078059530976 -1.9378871038094558 0.0 0.0 0.0 2.588702699398496 -0.49958120404616163 7.081277726332955 47.83186535039743 16.221300279938564 22.544127367181286 26.797454989978235 -0.6248390101846947 -13.60068313978443 0.0 0.0 0.0 0.002210220860470744 0.06090417690169651 3.4718942904923322 -1.7176028339548253 -5.94287304425846 18.2038861293296 7.953814949439135 1.6938566038657372 1.804365277810859 0.0 0.0 0.0
302.04995524719044 189.27395032600978 499.91091472595275 -9.963141603959992 -6.583308093182453 60.043313047213374 1.714136828769469 -3.5230844934019574 -0.47749611357043514 3.3285200357822275 -1.5892056930696727 -1.9433053427255726 0.0 0.0 0.0 2.5704228127665196 -0.4955750609597233 7.035541240867515 47.79684765467864 16.228360605802845 22.404552447769593 26.856344716673373 -0.5277200621235328 -13.952111258339032 0.0 0.0 0.0 -0.007062179481367655 0.06176890973097921 3.4202543557350653 -1.46613361063753 -6.18280330759115 18.328205547873893 8.226689851518938 1.7448175436526263 1.9833787823972113 0.0 0.0 0.0
